<svg viewBox="0 0 136 42" xmlns="http://www.w3.org/2000/svg" data-logo="logo">
        <g transform="translate(0, 1) rotate(0)" id="logogram" style="opacity: 1;"><path fill="#394149" d="M13.7544 6.5C13.7544 4.77609 13.0696 3.12278 11.8506 1.90381C10.6316 0.684818 8.9783 0 7.25439 0C5.53048 0 3.87719 0.684818 2.6582 1.90381C1.43921 3.12278 0.754395 4.77609 0.754395 6.5V26.1553L6.10734 29.9908V39.3346H8.40145V29.9908L13.7544 26.1553V6.5ZM11.4603 17.4926L8.40145 20.5515V17.6838L11.4603 14.625V17.4926ZM3.09631 14.625L6.15513 17.6838V20.5515L3.09631 17.4926V14.625ZM11.4603 11.375L7.25439 15.5809L3.04851 11.2794V8.41177L7.25439 12.6176L11.4603 8.41177V11.375ZM7.25439 2.29412C8.17939 2.2982 9.07754 2.60541 9.81126 3.16867C10.545 3.73192 11.0739 4.52016 11.3169 5.41268L7.25439 9.46323L3.19189 5.41268C3.42601 4.51129 3.95107 3.71235 4.68562 3.13985C5.42016 2.56733 6.32311 2.25324 7.25439 2.24631V2.29412ZM3.04851 24.9963V20.6949L6.10734 23.7537V27.171L3.04851 24.9963ZM8.40145 27.1829V23.7537L11.4603 20.6949V24.9844L8.40145 27.1829Z"></path></g>
        <g transform="translate(20, 8)" id="logotype" style="opacity: 1;"><path d="M6.34 6.89L17.67 6.89L17.67 10.81L6.34 10.81L6.34 6.89ZM8.97 20.86L8.97 2.35L14.10 2.35L14.10 20.41Q14.10 21.32 14.50 21.75Q14.90 22.19 15.84 22.19L15.84 22.19Q16.13 22.19 16.66 22.11Q17.19 22.04 17.47 21.97L17.47 21.97L18.20 25.81Q17.35 26.07 16.50 26.17Q15.66 26.27 14.89 26.27L14.89 26.27Q12.02 26.27 10.49 24.87Q8.97 23.47 8.97 20.86L8.97 20.86ZM24.06 26.38L24.06 26.38Q22.25 26.38 20.81 25.74Q19.36 25.09 18.53 23.82Q17.70 22.55 17.70 20.65L17.70 20.65Q17.70 19.06 18.29 17.98Q18.88 16.91 19.90 16.26Q20.92 15.61 22.21 15.27Q23.50 14.93 24.92 14.79L24.92 14.79Q26.57 14.62 27.59 14.47Q28.61 14.33 29.08 14.01Q29.55 13.70 29.55 13.08L29.55 13.08L29.55 12.99Q29.55 12.17 29.21 11.61Q28.86 11.05 28.20 10.75Q27.53 10.45 26.56 10.45L26.56 10.45Q25.57 10.45 24.83 10.75Q24.10 11.05 23.63 11.54Q23.17 12.04 22.95 12.65L22.95 12.65L18.25 11.87Q18.75 10.21 19.89 9.05Q21.04 7.88 22.74 7.27Q24.44 6.65 26.56 6.65L26.56 6.65Q28.11 6.65 29.56 7.02Q31.02 7.39 32.17 8.16Q33.32 8.93 34.00 10.16Q34.67 11.39 34.67 13.13L34.67 13.13L34.67 26L29.82 26L29.82 23.35L29.65 23.35Q29.19 24.24 28.42 24.91Q27.65 25.59 26.57 25.98Q25.48 26.38 24.06 26.38ZM25.51 22.77L25.51 22.77Q26.73 22.77 27.64 22.29Q28.56 21.81 29.07 20.99Q29.58 20.17 29.58 19.16L29.58 19.16L29.58 17.10Q29.36 17.27 28.90 17.40Q28.44 17.54 27.87 17.64Q27.31 17.75 26.76 17.83Q26.22 17.92 25.79 17.97L25.79 17.97Q24.85 18.10 24.13 18.41Q23.41 18.72 23.02 19.22Q22.63 19.73 22.63 20.51L22.63 20.51Q22.63 21.25 23.00 21.75Q23.38 22.26 24.02 22.51Q24.66 22.77 25.51 22.77ZM36.77 0.54L41.90 0.54L41.90 26L36.77 26L36.77 0.54ZM49.32 26.38L49.32 26.38Q47.51 26.38 46.06 25.74Q44.62 25.09 43.79 23.82Q42.96 22.55 42.96 20.65L42.96 20.65Q42.96 19.06 43.55 17.98Q44.14 16.91 45.16 16.26Q46.17 15.61 47.46 15.27Q48.75 14.93 50.17 14.79L50.17 14.79Q51.83 14.62 52.85 14.47Q53.86 14.33 54.33 14.01Q54.80 13.70 54.80 13.08L54.80 13.08L54.80 12.99Q54.80 12.17 54.46 11.61Q54.12 11.05 53.45 10.75Q52.79 10.45 51.81 10.45L51.81 10.45Q50.82 10.45 50.09 10.75Q49.35 11.05 48.89 11.54Q48.43 12.04 48.21 12.65L48.21 12.65L43.51 11.87Q44.00 10.21 45.15 9.05Q46.29 7.88 47.99 7.27Q49.69 6.65 51.81 6.65L51.81 6.65Q53.37 6.65 54.82 7.02Q56.27 7.39 57.43 8.16Q58.58 8.93 59.25 10.16Q59.93 11.39 59.93 13.13L59.93 13.13L59.93 26L55.08 26L55.08 23.35L54.90 23.35Q54.44 24.24 53.67 24.91Q52.91 25.59 51.82 25.98Q50.74 26.38 49.32 26.38ZM50.77 22.77L50.77 22.77Q51.98 22.77 52.90 22.29Q53.81 21.81 54.32 20.99Q54.84 20.17 54.84 19.16L54.84 19.16L54.84 17.10Q54.61 17.27 54.15 17.40Q53.69 17.54 53.13 17.64Q52.56 17.75 52.02 17.83Q51.47 17.92 51.04 17.97L51.04 17.97Q50.10 18.10 49.38 18.41Q48.67 18.72 48.27 19.22Q47.88 19.73 47.88 20.51L47.88 20.51Q47.88 21.25 48.26 21.75Q48.63 22.26 49.27 22.51Q49.91 22.77 50.77 22.77ZM67.36 26.38L67.36 26.38Q65.55 26.38 64.11 25.74Q62.66 25.09 61.83 23.82Q61.00 22.55 61.00 20.65L61.00 20.65Q61.00 19.06 61.59 17.98Q62.18 16.91 63.20 16.26Q64.22 15.61 65.51 15.27Q66.80 14.93 68.22 14.79L68.22 14.79Q69.87 14.62 70.89 14.47Q71.91 14.33 72.38 14.01Q72.85 13.70 72.85 13.08L72.85 13.08L72.85 12.99Q72.85 12.17 72.51 11.61Q72.16 11.05 71.50 10.75Q70.83 10.45 69.86 10.45L69.86 10.45Q68.87 10.45 68.13 10.75Q67.40 11.05 66.93 11.54Q66.47 12.04 66.25 12.65L66.25 12.65L61.55 11.87Q62.05 10.21 63.19 9.05Q64.34 7.88 66.04 7.27Q67.74 6.65 69.86 6.65L69.86 6.65Q71.41 6.65 72.86 7.02Q74.32 7.39 75.47 8.16Q76.62 8.93 77.30 10.16Q77.97 11.39 77.97 13.13L77.97 13.13L77.97 26L73.12 26L73.12 23.35L72.95 23.35Q72.49 24.24 71.72 24.91Q70.95 25.59 69.87 25.98Q68.78 26.38 67.36 26.38ZM68.81 22.77L68.81 22.77Q70.03 22.77 70.94 22.29Q71.86 21.81 72.37 20.99Q72.88 20.17 72.88 19.16L72.88 19.16L72.88 17.10Q72.66 17.27 72.20 17.40Q71.74 17.54 71.17 17.64Q70.61 17.75 70.06 17.83Q69.51 17.92 69.09 17.97L69.09 17.97Q68.15 18.10 67.43 18.41Q66.71 18.72 66.32 19.22Q65.93 19.73 65.93 20.51L65.93 20.51Q65.93 21.25 66.30 21.75Q66.68 22.26 67.32 22.51Q67.96 22.77 68.81 22.77ZM87.66 26.38L87.66 26.38Q85.35 26.38 83.58 25.72Q81.80 25.06 80.67 23.80Q79.54 22.55 79.22 20.77L79.22 20.77L83.99 19.95Q84.36 21.28 85.30 21.95Q86.24 22.62 87.82 22.62L87.82 22.62Q89.27 22.62 90.12 22.06Q90.98 21.51 90.98 20.65L90.98 20.65Q90.98 19.90 90.37 19.42Q89.76 18.94 88.52 18.69L88.52 18.69L85.22 18.00Q82.45 17.44 81.08 16.08Q79.72 14.72 79.72 12.58L79.72 12.58Q79.72 10.74 80.72 9.41Q81.73 8.09 83.53 7.37Q85.32 6.65 87.75 6.65L87.75 6.65Q90.00 6.65 91.66 7.28Q93.32 7.90 94.34 9.05Q95.37 10.19 95.71 11.75L95.71 11.75L91.17 12.55Q90.88 11.58 90.05 10.95Q89.22 10.33 87.82 10.33L87.82 10.33Q86.55 10.33 85.70 10.86Q84.84 11.39 84.84 12.26L84.84 12.26Q84.84 12.99 85.40 13.49Q85.95 13.99 87.30 14.26L87.30 14.26L90.74 14.94Q93.51 15.51 94.86 16.78Q96.21 18.05 96.21 20.10L96.21 20.10Q96.21 21.98 95.11 23.39Q94.02 24.80 92.10 25.59Q90.17 26.38 87.66 26.38ZM102.53 14.94L102.53 14.94L102.53 26L97.40 26L97.40 0.54L102.43 0.54L102.43 11.66L102.02 11.66Q102.77 9.27 104.30 7.96Q105.83 6.65 108.25 6.65L108.25 6.65Q110.24 6.65 111.71 7.52Q113.19 8.38 114.00 10.00Q114.82 11.61 114.82 13.85L114.82 13.85L114.82 26L109.69 26L109.69 14.74Q109.69 12.96 108.77 11.95Q107.86 10.94 106.24 10.94L106.24 10.94Q105.16 10.94 104.31 11.41Q103.47 11.88 103.00 12.77Q102.53 13.66 102.53 14.94Z" fill="#000000"></path></g>
        
      </svg>